<svg width="540" height="130" xmlns="http://www.w3.org/2000/svg">
 <!-- Created with SVG-edit - http://svg-edit.googlecode.com/ -->
 <title>Barbell</title>
 <defs>
  <mask id="inner" stroke="none">
   <rect x="0" y="0" width="540" height="130" fill="white"/>
   <g fill="black" transform="translate(5, 5)">
    <rect height="15" width="300" y="42" x="105"/>
    <rect height="100" width="30" y="0" x="70"/>
    <rect height="100" width="30" y="0" x="410"/>
    <rect height="70" width="25" y="15" x="40"/>
    <rect height="70" width="25" y="15" x="445"/>
    <rect height="50" width="20" y="25" x="15"/>
    <rect height="50" width="20" y="25" x="475"/>
    <rect height="15" width="10" y="42" x="500"/>
    <rect height="15" width="10" y="42" x="0"/>
   </g>
  </mask>
 </defs>
 <g id="outer" mask="url(#inner)" stroke="none" transform="translate(10, 10)">
  <rect height="60" width="30" y="25" x="475"/>
  <rect height="60" width="30" y="25" x="15"/>
  <rect height="80" width="35" y="15" x="445"/>
  <rect height="80" width="35" y="15" x="40"/>
  <rect height="110" width="40" y="0" x="410"/>
  <rect height="110" width="40" y="0" x="70"/>
  <rect height="25" width="520" y="42" x="0"/>
 </g>
</svg>
